<?xml version="1.0" encoding="utf-8"?>
<!-- Generator: Adobe Illustrator 23.0.3, SVG Export Plug-In . SVG Version: 6.00 Build 0)  -->
<svg version="1.1" id="Warstwa_1" xmlns="http://www.w3.org/2000/svg" xmlns:xlink="http://www.w3.org/1999/xlink" x="0px" y="0px"
	 viewBox="0 0 181.9 32.7" style="enable-background:new 0 0 181.9 32.7;" xml:space="preserve">
<style type="text/css">
	.st0{fill:none;stroke:#E84041;stroke-miterlimit:10;}
	.st1{fill:#E84041;}
</style>
<g>
	<g>
		<g>
			<line class="st0" x1="17.2" y1="18.2" x2="109.7" y2="18.2"/>
			<g>
				<polygon class="st1" points="10.2,18.2 20.1,22.2 17.7,18.2 20.1,14.1 				"/>
			</g>
		</g>
	</g>
	<g>
		<path class="st1" d="M124,17.7c0,2.2-1.9,4.1-4.1,4.1c-1.2,0-2.3-0.6-3-1.5v4.3c0,0.4-0.2,0.6-0.6,0.6h-0.1
			c-0.4,0-0.6-0.2-0.6-0.6V14.3c0-0.4,0.2-0.6,0.6-0.6h0.1c0.4,0,0.6,0.2,0.6,0.6v0.7c0.7-0.9,1.8-1.4,3-1.4
			C122.2,13.6,124,15.5,124,17.7z M122.8,17.7c0-1.6-1.2-2.9-2.8-2.9c-1.6,0-3,1.3-3,2.9c0,1.6,1.4,3,3,3
			C121.5,20.7,122.8,19.3,122.8,17.7z"/>
		<path class="st1" d="M125.5,17.7c0-2.3,1.9-4.1,4.1-4.1c2.3,0,4.1,1.9,4.1,4.1c0,2.2-1.9,4.1-4.1,4.1
			C127.4,21.9,125.5,20,125.5,17.7z M126.8,17.7c0,1.6,1.2,3,2.8,3s2.8-1.4,2.8-3c0-1.6-1.2-2.9-2.8-2.9S126.8,16.1,126.8,17.7z"/>
		<path class="st1" d="M147.1,13.8c0.4,0,0.5,0.3,0.4,0.7l-2.5,6.8c-0.1,0.3-0.3,0.5-0.6,0.5H144c-0.3,0-0.5-0.1-0.6-0.5l-2.1-5.8
			l-2.1,5.8c-0.1,0.3-0.3,0.5-0.6,0.5h-0.3c-0.3,0-0.5-0.1-0.6-0.5l-2.5-6.8c-0.2-0.4,0-0.7,0.5-0.7h0.1c0.3,0,0.5,0.1,0.6,0.4
			l2.1,5.8l2.1-5.8c0.1-0.3,0.3-0.4,0.6-0.4h0.3c0.3,0,0.5,0.1,0.6,0.4l2.1,5.8l2.1-5.8c0.1-0.3,0.3-0.4,0.6-0.4H147.1z"/>
		<path class="st1" d="M150.6,14.8c0.5-0.6,1.2-1,2.1-1.2c0.4-0.1,0.6,0.2,0.6,0.5v0c0,0.4-0.2,0.5-0.6,0.6c-1.2,0.2-2.1,1-2.1,2.4
			v3.8c0,0.4-0.2,0.6-0.6,0.6h-0.1c-0.4,0-0.6-0.2-0.6-0.6v-6.8c0-0.4,0.2-0.6,0.6-0.6h0.1c0.4,0,0.6,0.2,0.6,0.6V14.8z"/>
		<path class="st1" d="M154.6,17.7c0-2.3,1.9-4.1,4.1-4.1s4.1,1.9,4.1,4.1c0,2.2-1.9,4.1-4.1,4.1S154.6,20,154.6,17.7z M155.9,17.7
			c0,1.6,1.2,3,2.8,3s2.8-1.4,2.8-3c0-1.6-1.2-2.9-2.8-2.9S155.9,16.1,155.9,17.7z M158,11.9c-0.5,0-0.6-0.3-0.4-0.7l1.1-1.5
			c0.2-0.3,0.4-0.4,0.7-0.4h0.2c0.5,0,0.6,0.3,0.3,0.7l-1.3,1.6C158.5,11.8,158.3,11.9,158,11.9L158,11.9z"/>
		<path class="st1" d="M167.9,14.9h-1.2v6.2c0,0.4-0.2,0.6-0.6,0.6h-0.1c-0.4,0-0.6-0.2-0.6-0.6v-6.2h-0.6c-0.4,0-0.6-0.2-0.6-0.6
			c0-0.3,0.2-0.5,0.6-0.5h0.6v-2.5c0-0.4,0.2-0.6,0.6-0.6h0.1c0.4,0,0.6,0.2,0.6,0.6v2.5h1.2c0.4,0,0.6,0.2,0.6,0.5
			C168.5,14.7,168.3,14.9,167.9,14.9z"/>
	</g>
</g>
</svg>
