<svg xmlns="http://www.w3.org/2000/svg" viewBox="0 0 11.9 212.92"><defs><style>.cls-1{fill:#e84040;}</style></defs><title>menu</title><g id="Warstwa_2" data-name="Warstwa 2"><g id="Warstwa_1-2" data-name="Warstwa 1"><rect class="cls-1" x="-48.62" y="54.25" width="109.5" height="1" transform="translate(-48.65 60.67) rotate(-89.78)"/><path class="cls-1" d="M8.93,132.74a3,3,0,0,0-2.68,1.53,2.48,2.48,0,0,0-2.67-1.53,3,3,0,0,0-2.37,1.08v-.37a.52.52,0,0,0-.58-.58H.58a.52.52,0,0,0-.58.58v6.76a.52.52,0,0,0,.58.58H.63a.52.52,0,0,0,.58-.58v-3.54c0-1.93.91-2.74,2.37-2.74,1.17,0,1.77.78,1.77,2.34v3.94a.52.52,0,0,0,.57.58H6a.51.51,0,0,0,.57-.58v-3.54c0-1.93.92-2.74,2.38-2.74,1.17,0,1.77.78,1.77,2.34v3.94a.51.51,0,0,0,.57.58h.06a.52.52,0,0,0,.57-.58v-3.94C11.9,133.75,11,132.74,8.93,132.74Z"/><path class="cls-1" d="M6,156.74a4.14,4.14,0,0,0-4.11,4.11A4.19,4.19,0,0,0,6,165a4.12,4.12,0,0,0,3.26-1.59c.29-.37.07-.7-.4-.7H8.58a.91.91,0,0,0-.72.33A2.78,2.78,0,0,1,6,163.8a2.91,2.91,0,0,1-2.79-2.39H9.48c.38,0,.58-.09.58-.29v-.27A4.14,4.14,0,0,0,6,156.74Zm-2.79,3.51a2.84,2.84,0,0,1,5.58,0Z"/><path class="cls-1" d="M6.32,180.74a3.42,3.42,0,0,0-2.59,1.08v-.37a.52.52,0,0,0-.58-.58h0a.52.52,0,0,0-.58.58v6.76a.52.52,0,0,0,.58.58h0a.52.52,0,0,0,.58-.58v-3.63a2.34,2.34,0,0,1,2.59-2.65c1.31,0,2,.78,2,2.34v3.94a.52.52,0,0,0,.58.58H9a.52.52,0,0,0,.58-.58v-3.94C9.56,181.75,8.59,180.74,6.32,180.74Z"/><path class="cls-1" d="M8.8,204.87H8.75a.52.52,0,0,0-.58.58v3.63a2.38,2.38,0,0,1-2.59,2.65c-1.31,0-2-.78-2-2.34v-3.94a.52.52,0,0,0-.58-.58H2.92a.52.52,0,0,0-.58.58v3.94c0,2.52,1,3.53,3.24,3.53a3.42,3.42,0,0,0,2.59-1.08v.37a.52.52,0,0,0,.58.58H8.8a.52.52,0,0,0,.58-.58v-6.76A.52.52,0,0,0,8.8,204.87Z"/></g></g></svg>