<?xml version="1.0" encoding="utf-8"?>
<!-- Generator: Adobe Illustrator 23.0.4, SVG Export Plug-In . SVG Version: 6.00 Build 0)  -->
<svg version="1.1" id="Warstwa_1" xmlns="http://www.w3.org/2000/svg" xmlns:xlink="http://www.w3.org/1999/xlink" x="0px" y="0px"
	 viewBox="0 0 4096 2384" style="enable-background:new 0 0 4096 2384;" xml:space="preserve">
<style type="text/css">
	.st0{fill:#CECDCC;}
</style>
<g>
	<g>
		<path class="st0" d="M1697.5,2168.9C1697.5,2168.9,1697.5,2168.9,1697.5,2168.9c-32.1,0-60.8-17.2-76.8-45.9L891.2,816.4
			c-16-28.7-16-63,0-91.7c16-28.7,44.8-45.9,76.8-45.9h777.5c31.6,0,61,17.6,76.8,45.8c13.3,23.9,37.2,38.2,63.9,38.2
			c26.7,0,50.6-14.3,63.9-38.2c15.8-28.3,45.2-45.8,76.8-45.8h777.5c32.1,0,60.8,17.1,76.8,45.9c16,28.7,16,63,0,91.7l-729.5,1306.7
			c-16,28.7-44.7,45.9-76.8,45.9c-32.1,0-60.8-17.2-76.8-45.9l-48-85.9c-13.3-23.9-37.2-38.2-63.9-38.2c-26.7,0-50.6,14.3-63.9,38.2
			l-48,85.9C1758.3,2151.8,1729.5,2168.9,1697.5,2168.9z M968,694.1c-26.7,0-50.6,14.3-63.9,38.2c-13.3,23.9-13.3,52.4,0,76.3
			l729.5,1306.7c13.3,23.9,37.2,38.2,63.9,38.2s50.6-14.3,63.9-38.2l48-85.9c16-28.7,44.7-45.9,76.8-45.9
			c32.1,0,60.8,17.2,76.8,45.9l48,85.9c13.3,23.9,37.2,38.2,63.9,38.2s50.6-14.3,63.9-38.2l729.5-1306.7c13.3-23.9,13.3-52.4,0-76.3
			c-13.3-23.9-37.3-38.2-63.9-38.2h-777.5c-26.3,0-50.8,14.6-63.9,38.2c-16,28.7-44.8,45.8-76.8,45.8l0,0
			c-32.1,0-60.8-17.1-76.8-45.8c-13.2-23.5-37.7-38.2-63.9-38.2H968z"/>
	</g>
	<g>
		<path class="st0" d="M1697.5,1903.2L1146.9,917c-6.9-12.4-6.9-27.2,0-39.7c6.9-12.4,19.3-19.8,33.2-19.8h516.8l378,677l271.8-487
			h-171.4L2072.2,1232l-74.3-142.5l-19.8-40.9c-2.8-5.7-2.6-12.4,0.5-17.9l96.8-173.3h583.2l-553.8,991.9
			c-6.3,11.2-17.5,17.9-30,17.9c-12.5,0-23.8-6.7-30-17.9L1597,1047.5h-171.4l374.7,671.3L1697.5,1903.2z M1180.1,872.9
			c-8.5,0-16.1,4.5-20.3,12.1c-4.2,7.6-4.2,16.7,0,24.3l537.7,963.1l85.7-153.6l-383.3-686.7h205.8l452.1,809.6
			c7.1,12.8,27.1,12.8,34.2,0l540.9-968.8h-548.8l-92.5,165.6c-0.6,1-0.6,2.2-0.1,3.3l19.7,40.7l61.5,118.1l94-168.3h205.8
			l-297.6,533.1l-386.6-692.4H1180.1z"/>
	</g>
</g>
</svg>
